name D:\school\WTK\thesis\model\3dpredictsim\Results\Batchsim_tmt_linear_v2\Pog_s1_tmt_bCst_d02_k2000_ig24_act.mot
datacolumns 128
datarows 4
range 0.00000000 0.03635510
endheader
time	pelvis_tilt	pelvis_list	pelvis_rotation	pelvis_tx	pelvis_ty	pelvis_tz	hip_flexion_l	hip_adduction_l	hip_rotation_l	hip_flexion_r	hip_adduction_r	hip_rotation_r	knee_angle_l	knee_angle_r	ankle_angle_l	ankle_angle_r	subtalar_angle_l	subtalar_angle_r	tmt_angle_l	tmt_angle_r	mtp_angle_l	mtp_angle_r	lumbar_extension	lumbar_bending	lumbar_rotation	arm_flex_l	arm_add_l	arm_rot_l	arm_flex_r	arm_add_r	arm_rot_r	elbow_flex_l	elbow_flex_r	pro_sup_l	pro_sup_r	glut_med1_l/activation	glut_med2_l/activation	glut_med3_l/activation	glut_min1_l/activation	glut_min2_l/activation	glut_min3_l/activation	semimem_l/activation	semiten_l/activation	bifemlh_l/activation	bifemsh_l/activation	sar_l/activation	add_long_l/activation	add_brev_l/activation	add_mag1_l/activation	add_mag2_l/activation	add_mag3_l/activation	tfl_l/activation	pect_l/activation	grac_l/activation	glut_max1_l/activation	glut_max2_l/activation	glut_max3_l/activation	iliacus_l/activation	psoas_l/activation	quad_fem_l/activation	gem_l/activation	peri_l/activation	rect_fem_l/activation	vas_med_l/activation	vas_int_l/activation	vas_lat_l/activation	med_gas_l/activation	lat_gas_l/activation	soleus_l/activation	tib_post_l/activation	flex_dig_l/activation	flex_hal_l/activation	tib_ant_l/activation	per_brev_l/activation	per_long_l/activation	per_tert_l/activation	ext_dig_l/activation	ext_hal_l/activation	ercspn_l/activation	intobl_l/activation	extobl_l/activation	glut_med1_r/activation	glut_med2_r/activation	glut_med3_r/activation	glut_min1_r/activation	glut_min2_r/activation	glut_min3_r/activation	semimem_r/activation	semiten_r/activation	bifemlh_r/activation	bifemsh_r/activation	sar_r/activation	add_long_r/activation	add_brev_r/activation	add_mag1_r/activation	add_mag2_r/activation	add_mag3_r/activation	tfl_r/activation	pect_r/activation	grac_r/activation	glut_max1_r/activation	glut_max2_r/activation	glut_max3_r/activation	iliacus_r/activation	psoas_r/activation	quad_fem_r/activation	gem_r/activation	peri_r/activation	rect_fem_r/activation	vas_med_r/activation	vas_int_r/activation	vas_lat_r/activation	med_gas_r/activation	lat_gas_r/activation	soleus_r/activation	tib_post_r/activation	flex_dig_r/activation	flex_hal_r/activation	tib_ant_r/activation	per_brev_r/activation	per_long_r/activation	per_tert_r/activation	ext_dig_r/activation	ext_hal_r/activation	ercspn_r/activation	intobl_r/activation	extobl_r/activation	
          0.00000000	         -1.94218285	          1.88386865	          7.49903062	          0.00000000	          0.86760255	         -0.00326109	        -14.40606608	          1.37161312	          5.75018571	         28.69419474	         -2.40543804	         -0.63859083	        -18.12631375	        -10.30748887	        -12.94756818	          8.21621474	          9.07489158	          5.39827256	          0.49765764	          0.01336239	         34.33236752	         -0.07029284	          1.40945085	         -4.86301765	         -2.50521248	          2.76761699	        -13.54053589	         11.92429093	        -14.75737016	        -13.45025581	         15.79448987	         31.46298176	         18.79234329	         86.51662706	         86.51662706	          0.25220161	          0.06657512	          0.05000010	          0.23132627	          0.13642009	          0.06535304	          0.05000248	          0.05000024	          0.05000031	          0.05000018	          0.08194399	          0.17023269	          0.11595769	          0.05010480	          0.05000665	          0.05000621	          0.15082648	          0.05443360	          0.05000074	          0.05000188	          0.05000150	          0.05000178	          0.24117414	          0.44375921	          0.05000024	          0.05000081	          0.07195062	          0.18123092	          0.09288915	          0.09621486	          0.08462871	          0.05000004	          0.06937918	          0.05000001	          0.09471145	          0.08493612	          0.10058576	          0.14147432	          0.29897857	          0.21403598	          0.35597200	          0.44982560	          0.05000022	          0.05000001	          0.06211561	          0.06193096	          0.07891748	          0.06009908	          0.06724825	          0.05000124	          0.05001512	          0.05385309	          0.06836428	          0.06009914	          0.06865932	          0.05186009	          0.05869452	          0.05000020	          0.05000031	          0.07413671	          0.14515197	          0.12109258	          0.06009917	          0.05000087	          0.05000303	          0.06009919	          0.06914232	          0.12317578	          0.07877437	          0.07223827	          0.09877266	          0.06009937	          0.07765327	          0.05000024	          0.05000107	          0.07186590	          0.05000074	          0.06009869	          0.06009874	          0.06393924	          0.06009865	          0.07224162	          0.07223785	          0.44580717	          0.20063410	          0.17748728	          0.16714808	          0.48519454	          0.28527573	          0.05000002	          0.14713798	          0.12614797	
          0.01211837	         -1.92001535	          2.09757184	          7.54041115	          0.02032150	          0.86659307	         -0.00298227	        -14.46016070	          1.29468068	          5.56322582	         28.10247442	         -2.41356696	         -0.47879038	        -19.77663052	        -10.28412041	        -15.51635863	          7.68382994	          9.77405848	          5.09130814	          0.37886330	          0.01146218	         34.68277081	         -0.05718535	          1.69457104	         -4.74864069	         -2.58142299	          2.40451099	        -13.60825098	         12.31048968	        -16.54660197	        -13.45480827	         15.85564839	         32.44072628	         19.12776065	         86.51662706	         86.51662706	          0.20982309	          0.05538842	          0.05742626	          0.19245555	          0.11349689	          0.05437208	          0.05000162	          0.05000028	          0.05000025	          0.05000034	          0.06817537	          0.23821772	          0.30794375	          0.14600592	          0.05000456	          0.05000039	          0.12548249	          0.13733811	          0.08595868	          0.05000391	          0.05000219	          0.05000216	          0.20064866	          0.38897877	          0.10937266	          0.06261248	          0.05986292	          0.15077790	          0.07728063	          0.08004750	          0.07040821	          0.05000010	          0.05772116	          0.05000003	          0.07879668	          0.07066409	          0.08368394	          0.27153192	          0.30284034	          0.20120441	          0.50668531	          0.61198401	          0.19318081	          0.05148815	          0.07050233	          0.06670579	          0.13289447	          0.05000054	          0.25784086	          0.06009734	          0.05000134	          0.05000055	          0.06009834	          0.05000055	          0.06009846	          0.05000019	          0.05000070	          0.08682664	          0.10436494	          0.16282381	          0.20261719	          0.16184190	          0.05000058	          0.07224001	          0.06009685	          0.05000060	          0.05752412	          0.18128043	          0.06553767	          0.06009983	          0.08217562	          0.05000180	          0.21822154	          0.07167020	          0.25528812	          0.25736064	          0.22128647	          0.05000005	          0.05000010	          0.05319526	          0.05000003	          0.06010276	          0.06009955	          0.64498235	          0.30434477	          0.16224640	          0.53932399	          0.62921754	          0.50162038	          0.05000004	          0.12241375	          0.10495078	
          0.02423673	         -1.89094161	          2.29111514	          7.54729518	          0.04067156	          0.86494647	         -0.00270819	        -14.35726520	          1.23624609	          5.39232906	         27.41775227	         -2.38350830	         -0.29188236	        -21.76897475	        -10.82443052	        -17.39158131	          6.83430212	         10.44696272	          4.78638025	          0.28017059	          0.00577196	         33.39801681	         -0.01463692	          1.96905368	         -4.59133640	         -2.64237306	          2.01845300	        -13.69304399	         12.66622291	        -18.28187617	        -13.48250171	         16.02042953	         33.41739557	         19.38497212	         86.51662706	         86.51662706	          0.17456562	          0.06009898	          0.06010741	          0.16011645	          0.09442557	          0.06009924	          0.05000578	          0.05000089	          0.06009874	          0.05000015	          0.05671985	          0.23525411	          0.32341685	          0.20459150	          0.07405816	          0.09738933	          0.10439716	          0.11426091	          0.07151505	          0.06009943	          0.06009951	          0.06010203	          0.16693281	          0.32361715	          0.09099439	          0.07014937	          0.06009887	          0.12544203	          0.06793708	          0.08682522	          0.07519004	          0.05000004	          0.05000013	          0.05000001	          0.06555614	          0.05879042	          0.06962222	          0.36890553	          0.32029081	          0.20314802	          0.55712659	          0.72380433	          0.16071988	          0.07086330	          0.06312803	          0.05549699	          0.20397356	          0.17540198	          0.24457865	          0.05000128	          0.05000095	          0.05919606	          0.05000003	          0.05000008	          0.05000004	          0.05000004	          0.05000019	          0.07223684	          0.08682809	          0.13546408	          0.16857233	          0.14191510	          0.05434566	          0.06010155	          0.05000055	          0.13990371	          0.12735299	          0.15572652	          0.05452515	          0.05000114	          0.13160562	          0.05000091	          0.18155307	          0.06221028	          0.29979904	          0.31735968	          0.25326655	          0.05000002	          0.05000007	          0.05000000	          0.05000018	          0.05000426	          0.05000131	          0.60120474	          0.31550010	          0.18169477	          0.50720985	          0.55996832	          0.41733097	          0.05000002	          0.10184403	          0.08731544	
          0.03635510	         -1.85643995	          2.46385375	          7.51741108	          0.06088793	          0.86285320	         -0.00243952	        -14.10040192	          1.19109574	          5.24444173	         26.62705040	         -2.32908357	         -0.06102376	        -24.09657773	        -11.76114005	        -18.54553187	          6.13354220	         11.08141428	          4.47324747	          0.20728240	         -0.00529633	         30.43424401	         -0.17377287	          2.22644880	         -4.39505695	         -2.69000349	          1.63941790	        -13.78322114	         12.99759929	        -19.90875468	        -13.52429589	         16.30792923	         34.34611732	         19.50729096	         86.51662706	         86.51662706	          0.15509726	          0.05000032	          0.05000731	          0.13321171	          0.07855891	          0.05000059	          0.06534885	          0.05000012	          0.05000035	          0.05000011	          0.05000246	          0.20285743	          0.30538334	          0.17021344	          0.06161525	          0.08102498	          0.08685489	          0.09506199	          0.05949820	          0.05000127	          0.05000107	          0.05000303	          0.13888239	          0.31133671	          0.07570422	          0.05836194	          0.05000024	          0.10436346	          0.07223620	          0.07223586	          0.06255567	          0.05000034	          0.05000120	          0.05000025	          0.05454047	          0.05000087	          0.05792339	          0.38702359	          0.28311765	          0.17929659	          0.52017282	          0.82230157	          0.39092590	          0.09875193	          0.05252035	          0.05134775	          0.28599389	          0.33045715	          0.42288035	          0.05000185	          0.17303976	          0.28236953	          0.06050223	          0.07516602	          0.06590880	          0.07223665	          0.05002314	          0.06009861	          0.07223801	          0.11270153	          0.14024659	          0.15202654	          0.05000021	          0.05000289	          0.05000130	          0.23850339	          0.19262471	          0.17320341	          0.05000012	          0.05000012	          0.11601069	          0.05740398	          0.31403186	          0.05175683	          0.24942254	          0.26403240	          0.21070911	          0.05000003	          0.05000006	          0.05000001	          0.05000000	          0.05000015	          0.05000012	          0.70806587	          0.29818871	          0.15116404	          0.72742259	          0.70350169	          0.53617347	          0.05000002	          0.08473074	          0.07264345	
